HIERARCHY
ROOT Hips
{
 OFFSET 0.000000 0.000000 0.000000
 CHANNELS 6 Xposition Yposition Zposition Yrotation Xrotation Zrotation
 JOINT Chest
 {
  OFFSET 0.000000 9.585900 0.002600
  CHANNELS 3 Yrotation Xrotation Zrotation
  JOINT Chest2
  {
   OFFSET 0.000000 9.601200 -0.005300
   CHANNELS 3 Yrotation Xrotation Zrotation
   JOINT Chest3
   {
    OFFSET 0.000000 9.561800 0.000000
    CHANNELS 3 Yrotation Xrotation Zrotation
    JOINT Chest4
    {
     OFFSET 0.000000 9.552100 0.000000
     CHANNELS 3 Yrotation Xrotation Zrotation
     JOINT Neck
     {
      OFFSET 0.000000 14.453000 0.000000
      CHANNELS 3 Yrotation Xrotation Zrotation
      JOINT Head
      {
       OFFSET 0.000000 8.936500 -0.011300
       CHANNELS 3 Yrotation Xrotation Zrotation
       End Site
       {
        OFFSET 0.000000 17.073600 -0.006000
       }
      }
     }
     JOINT RightCollar
     {
      OFFSET -2.921100 9.558500 0.000000
      CHANNELS 3 Yrotation Xrotation Zrotation
      JOINT RightShoulder
      {
       OFFSET -13.519700 0.000000 0.000000
       CHANNELS 3 Yrotation Xrotation Zrotation
       JOINT RightElbow
       {
        OFFSET 0.000000 -29.696600 0.000000
        CHANNELS 3 Yrotation Xrotation Zrotation
        JOINT RightWrist
        {
         OFFSET 0.000000 -24.004700 0.000000
         CHANNELS 3 Yrotation Xrotation Zrotation
         End Site
         {
          OFFSET 0.000000 -17.728500 0.000000
         }
        }
       }
      }
     }
     JOINT LeftCollar
     {
      OFFSET 2.921100 9.558500 0.000000
      CHANNELS 3 Yrotation Xrotation Zrotation
      JOINT LeftShoulder
      {
       OFFSET 13.519700 0.000000 0.000000
       CHANNELS 3 Yrotation Xrotation Zrotation
       JOINT LeftElbow
       {
        OFFSET 0.000000 -29.696600 0.000000
        CHANNELS 3 Yrotation Xrotation Zrotation
        JOINT LeftWrist
        {
         OFFSET 0.000000 -24.004700 0.000000
         CHANNELS 3 Yrotation Xrotation Zrotation
         End Site
         {
          OFFSET 0.000000 -17.728500 0.000000
         }
        }
       }
      }
     }
    }
   }
  }
 }
 JOINT RightHip
 {
  OFFSET -7.771700 -0.012900 -0.001300
  CHANNELS 3 Yrotation Xrotation Zrotation
  JOINT RightKnee
  {
   OFFSET 0.000000 -40.869800 0.001200
   CHANNELS 3 Yrotation Xrotation Zrotation
   JOINT RightAnkle
   {
    OFFSET 0.000000 -39.717900 0.002100
    CHANNELS 3 Yrotation Xrotation Zrotation
    JOINT RightToe
    {
     OFFSET 0.000000 -4.965400 11.033500
     CHANNELS 3 Yrotation Xrotation Zrotation
     End Site
     {
      OFFSET 0.000000 -1.423100 5.872300
     }
    }
   }
  }
 }
 JOINT LeftHip
 {
  OFFSET 7.771700 -0.012900 -0.001300
  CHANNELS 3 Yrotation Xrotation Zrotation
  JOINT LeftKnee
  {
   OFFSET 0.000000 -40.869800 0.001200
   CHANNELS 3 Yrotation Xrotation Zrotation
   JOINT LeftAnkle
   {
    OFFSET 0.000000 -39.717900 0.002100
    CHANNELS 3 Yrotation Xrotation Zrotation
    JOINT LeftToe
    {
     OFFSET 0.000000 -4.965400 11.033500
     CHANNELS 3 Yrotation Xrotation Zrotation
     End Site
     {
      OFFSET 0.000000 -1.423100 5.872300
     }
    }
   }
  }
 }
}
MOTION
Frames: 6
Frame Time: 0.008333
0.000000 85.388000 0.000000 0.000000 -5.767877 0.000000 0.000000 11.653817 0.000000 0.000000 -5.885947 0.000000 0.000000 -0.000000 0.000000 0.000000 -0.000000 0.000000 0.000000 12.528835 0.000000 0.000000 0.711642 0.000000 0.000000 -0.000000 0.000000 0.000000 0.000000 -90.000000 0.000000 -2.309062 0.000000 0.000000 2.309062 0.000000 0.000000 -0.000000 0.000000 0.000000 -0.000000 90.000000 0.000000 -2.309062 0.000000 0.000000 2.309062 0.000000 0.000000 8.520406 0.000000 0.000000 1.905762 0.000000 -0.000000 -4.658285 0.000000 0.000000 -0.000000 0.000000 0.000000 8.520406 0.000000 0.000000 1.905762 0.000000 -0.000000 -4.658285 0.000000 0.000000 -0.000000 0.000000
-143.666612 51.619362 -59.788395 177.341565 -22.310801 -0.486695 -1.381423 10.871313 0.430615 -0.095672 0.727845 0.077068 -0.163790 1.251552 0.131668 -1.243674 10.054278 0.977449 -1.540088 19.892670 -2.263329 -1.163668 -4.615649 -2.042288 6.798819 13.490778 8.778226 59.979743 -6.177697 -53.116046 161.635100 -31.443662 176.028188 -9.827452 -16.756962 14.937965 -3.136698 11.857417 -14.275172 -60.031683 -4.758265 54.375149 -152.868679 -38.329922 -176.501724 20.975239 -14.198648 -32.676080 -11.253081 -60.262842 5.546495 -66.107793 83.052381 -74.460087 -2.358458 -5.343862 7.311652 0.354408 -1.003815 0.176051 11.050628 -58.677288 -7.303990 32.245616 86.863883 37.834243 -4.011838 -12.842804 1.876235 0.012068 0.113268 0.004047
-143.664341 51.617453 -59.793721 177.352816 -22.284783 -0.473687 -1.392805 10.856303 0.431240 -0.095617 0.725496 0.076618 -0.163782 1.247345 0.130964 -1.248722 10.035192 0.972449 -1.521285 19.887165 -2.269287 -1.100923 -4.644285 -2.067518 6.801354 13.497774 8.764175 59.974616 -6.195023 -53.116021 161.595936 -31.395757 176.045391 -9.848211 -16.724421 14.920300 -3.156693 11.859199 -14.275041 -60.065205 -4.795730 54.456559 -152.842951 -38.342305 -176.518130 20.979823 -14.184054 -32.664339 -11.258266 -60.297018 5.535213 -66.247294 83.050446 -74.600157 -2.353339 -5.342893 7.294680 0.358549 -1.001055 0.183998 11.068490 -58.697832 -7.339661 32.312381 86.863880 37.900287 -4.014325 -12.848501 1.874758 0.013230 0.114419 0.003347
-143.661836 51.615197 -59.799911 177.361739 -22.256086 -0.458459 -1.399714 10.848919 0.443530 -0.096165 0.713555 0.064477 -0.164230 1.242205 0.130157 -1.256448 10.022430 0.960724 -1.505587 19.878504 -2.270003 -1.073662 -4.659488 -2.074631 6.804752 13.498314 8.755639 59.977681 -6.222956 -53.119041 161.591789 -31.390872 176.040462 -9.842984 -16.722598 14.899657 -3.166284 11.860643 -14.274536 -60.110933 -4.815682 54.506527 -152.809204 -38.345623 -176.540574 20.979784 -14.153270 -32.637006 -11.260082 -60.334158 5.521061 -66.386864 83.052732 -74.740209 -2.348396 -5.345843 7.281867 0.358054 -0.994624 0.185850 11.067184 -58.722196 -7.357760 32.395117 86.867789 37.968144 -4.013293 -12.856555 1.876274 0.012198 0.116006 0.000571
-143.660640 51.612629 -59.806609 177.363585 -22.225400 -0.431996 -1.407234 10.830660 0.435702 -0.095222 0.709751 0.060041 -0.164401 1.236954 0.129105 -1.261176 9.992863 0.960329 -1.503960 19.897715 -2.283626 -1.057690 -4.671276 -2.077065 6.816405 13.498492 8.735679 59.979484 -6.241907 -53.101055 161.574452 -31.394271 176.037483 -9.847897 -16.708334 14.893067 -3.176753 11.879209 -14.283620 -60.163799 -4.831020 54.542870 -152.787585 -38.372447 -176.539004 20.968893 -14.141923 -32.637717 -11.269599 -60.381209 5.511605 -66.552645 83.065618 -74.918632 -2.344936 -5.336508 7.272158 0.356203 -1.000507 0.182168 11.079440 -58.744771 -7.392817 32.471102 86.868967 38.030921 -4.006893 -12.865907 1.877484 0.012176 0.117538 -0.003100
-143.656748 51.609803 -59.813058 177.361652 -22.192460 -0.421366 -1.407284 10.804648 0.441097 -0.095579 0.709223 0.061074 -0.164383 1.230915 0.128439 -1.264744 9.968072 0.958692 -1.470051 19.865940 -2.276731 -1.070807 -4.634372 -2.088259 6.815309 13.511539 8.721086 59.990737 -6.259748 -53.094431 161.569857 -31.406825 176.038341 -9.842156 -16.711906 14.877624 -3.201072 11.892694 -14.288333 -60.205426 -4.852757 54.562668 -152.774663 -38.403181 -176.533755 20.959205 -14.148745 -32.662836 -11.273023 -60.419510 5.512791 -66.659056 83.071727 -75.023792 -2.344006 -5.344497 7.267271 0.350924 -0.972569 0.172867 11.065989 -58.775677 -7.394770 32.439630 86.880020 37.990415 -3.990105 -12.878386 1.868556 0.013245 0.120139 -0.004758
